<?xml version="1.0" encoding="UTF-8" standalone="no"?>
<!DOCTYPE svg PUBLIC "-//W3C//DTD SVG 1.1//EN"
 "http://www.w3.org/Graphics/SVG/1.1/DTD/svg11.dtd">
<!-- Generated by graphviz version 2.26.3 (20100126.1600)
 -->
<!-- Title: controllers_diagram Pages: 1 -->
<svg width="854pt" height="810pt"
 viewBox="0.00 0.00 854.00 810.26" xmlns="http://www.w3.org/2000/svg" xmlns:xlink="http://www.w3.org/1999/xlink">
<g id="graph1" class="graph" transform="scale(1 1) rotate(0) translate(4 806.262)">
<title>controllers_diagram</title>
<polygon fill="white" stroke="white" points="-4,5 -4,-806.262 851,-806.262 851,5 -4,5"/>
<!-- _diagram_info -->
<g id="node1" class="node"><title>_diagram_info</title>
<text text-anchor="start" x="603" y="-186.3" font-family="Times Roman,serif" font-size="13.00">Controllers diagram</text>
<text text-anchor="start" x="603" y="-169.3" font-family="Times Roman,serif" font-size="13.00">Date: May 13 2014 &#45; 21:27</text>
<text text-anchor="start" x="603" y="-152.3" font-family="Times Roman,serif" font-size="13.00">Migration version: 20140513191604</text>
<text text-anchor="start" x="603" y="-135.3" font-family="Times Roman,serif" font-size="13.00">Generated by RailRoady 1.1.1</text>
<text text-anchor="start" x="603" y="-118.3" font-family="Times Roman,serif" font-size="13.00">http://railroady.prestonlee.com</text>
</g>
<!-- OrdersController -->
<g id="node2" class="node"><title>OrdersController</title>
<polyline fill="none" stroke="black" points="19.8601,-260.127 127.86,-260.127 "/>
<path fill="none" stroke="black" d="M127.86,-260.127C133.86,-260.127 139.86,-266.127 139.86,-272.127"/>
<polyline fill="none" stroke="black" points="139.86,-272.127 139.86,-494.127 "/>
<path fill="none" stroke="black" d="M139.86,-494.127C139.86,-500.127 133.86,-506.127 127.86,-506.127"/>
<polyline fill="none" stroke="black" points="127.86,-506.127 19.8601,-506.127 "/>
<path fill="none" stroke="black" d="M19.8601,-506.127C13.8601,-506.127 7.86014,-500.127 7.86014,-494.127"/>
<polyline fill="none" stroke="black" points="7.86014,-494.127 7.86014,-272.127 "/>
<path fill="none" stroke="black" d="M7.86014,-272.127C7.86014,-266.127 13.8601,-260.127 19.8601,-260.127"/>
<text text-anchor="middle" x="73.8601" y="-489.527" font-family="Times Roman,serif" font-size="14.00">OrdersController</text>
<polyline fill="none" stroke="black" points="7.86014,-480.127 139.86,-480.127 "/>
<text text-anchor="start" x="15.8601" y="-463.527" font-family="Times Roman,serif" font-size="14.00">create</text>
<text text-anchor="start" x="15.8601" y="-445.527" font-family="Times Roman,serif" font-size="14.00">destroy</text>
<text text-anchor="start" x="15.8601" y="-427.527" font-family="Times Roman,serif" font-size="14.00">edit</text>
<text text-anchor="start" x="15.8601" y="-409.527" font-family="Times Roman,serif" font-size="14.00">index</text>
<text text-anchor="start" x="15.8601" y="-391.527" font-family="Times Roman,serif" font-size="14.00">new</text>
<text text-anchor="start" x="15.8601" y="-373.527" font-family="Times Roman,serif" font-size="14.00">show</text>
<text text-anchor="start" x="15.8601" y="-355.527" font-family="Times Roman,serif" font-size="14.00">update</text>
<polyline fill="none" stroke="black" points="7.86014,-346.127 139.86,-346.127 "/>
<polyline fill="none" stroke="black" points="7.86014,-322.127 139.86,-322.127 "/>
<text text-anchor="start" x="15.8601" y="-305.527" font-family="Times Roman,serif" font-size="14.00">_layout</text>
<text text-anchor="start" x="15.8601" y="-287.527" font-family="Times Roman,serif" font-size="14.00">order_params</text>
<text text-anchor="start" x="15.8601" y="-269.527" font-family="Times Roman,serif" font-size="14.00">set_order</text>
</g>
<!-- WelcomeController -->
<g id="node3" class="node"><title>WelcomeController</title>
<polyline fill="none" stroke="black" points="421.497,-328.691 545.497,-328.691 "/>
<path fill="none" stroke="black" d="M545.497,-328.691C551.497,-328.691 557.497,-334.691 557.497,-340.691"/>
<polyline fill="none" stroke="black" points="557.497,-340.691 557.497,-418.691 "/>
<path fill="none" stroke="black" d="M557.497,-418.691C557.497,-424.691 551.497,-430.691 545.497,-430.691"/>
<polyline fill="none" stroke="black" points="545.497,-430.691 421.497,-430.691 "/>
<path fill="none" stroke="black" d="M421.497,-430.691C415.497,-430.691 409.497,-424.691 409.497,-418.691"/>
<polyline fill="none" stroke="black" points="409.497,-418.691 409.497,-340.691 "/>
<path fill="none" stroke="black" d="M409.497,-340.691C409.497,-334.691 415.497,-328.691 421.497,-328.691"/>
<text text-anchor="middle" x="483.497" y="-414.091" font-family="Times Roman,serif" font-size="14.00">WelcomeController</text>
<polyline fill="none" stroke="black" points="409.497,-404.691 557.497,-404.691 "/>
<text text-anchor="start" x="417.497" y="-388.091" font-family="Times Roman,serif" font-size="14.00">index</text>
<polyline fill="none" stroke="black" points="409.497,-378.691 557.497,-378.691 "/>
<polyline fill="none" stroke="black" points="409.497,-354.691 557.497,-354.691 "/>
<text text-anchor="start" x="417.497" y="-338.091" font-family="Times Roman,serif" font-size="14.00">_layout</text>
</g>
<!-- ExpensesController -->
<g id="node4" class="node"><title>ExpensesController</title>
<polyline fill="none" stroke="black" points="365.17,-1.5 491.17,-1.5 "/>
<path fill="none" stroke="black" d="M491.17,-1.5C497.17,-1.5 503.17,-7.5 503.17,-13.5"/>
<polyline fill="none" stroke="black" points="503.17,-13.5 503.17,-235.5 "/>
<path fill="none" stroke="black" d="M503.17,-235.5C503.17,-241.5 497.17,-247.5 491.17,-247.5"/>
<polyline fill="none" stroke="black" points="491.17,-247.5 365.17,-247.5 "/>
<path fill="none" stroke="black" d="M365.17,-247.5C359.17,-247.5 353.17,-241.5 353.17,-235.5"/>
<polyline fill="none" stroke="black" points="353.17,-235.5 353.17,-13.5 "/>
<path fill="none" stroke="black" d="M353.17,-13.5C353.17,-7.5 359.17,-1.5 365.17,-1.5"/>
<text text-anchor="middle" x="428.17" y="-230.9" font-family="Times Roman,serif" font-size="14.00">ExpensesController</text>
<polyline fill="none" stroke="black" points="353.17,-221.5 503.17,-221.5 "/>
<text text-anchor="start" x="361.17" y="-204.9" font-family="Times Roman,serif" font-size="14.00">create</text>
<text text-anchor="start" x="361.17" y="-186.9" font-family="Times Roman,serif" font-size="14.00">destroy</text>
<text text-anchor="start" x="361.17" y="-168.9" font-family="Times Roman,serif" font-size="14.00">edit</text>
<text text-anchor="start" x="361.17" y="-150.9" font-family="Times Roman,serif" font-size="14.00">index</text>
<text text-anchor="start" x="361.17" y="-132.9" font-family="Times Roman,serif" font-size="14.00">new</text>
<text text-anchor="start" x="361.17" y="-114.9" font-family="Times Roman,serif" font-size="14.00">show</text>
<text text-anchor="start" x="361.17" y="-96.9" font-family="Times Roman,serif" font-size="14.00">update</text>
<polyline fill="none" stroke="black" points="353.17,-87.5 503.17,-87.5 "/>
<polyline fill="none" stroke="black" points="353.17,-63.5 503.17,-63.5 "/>
<text text-anchor="start" x="361.17" y="-46.9" font-family="Times Roman,serif" font-size="14.00">_layout</text>
<text text-anchor="start" x="361.17" y="-28.9" font-family="Times Roman,serif" font-size="14.00">expense_params</text>
<text text-anchor="start" x="361.17" y="-10.9" font-family="Times Roman,serif" font-size="14.00">set_expense</text>
</g>
<!-- AppointmentsController -->
<g id="node5" class="node"><title>AppointmentsController</title>
<polyline fill="none" stroke="black" points="200.701,-554.762 358.701,-554.762 "/>
<path fill="none" stroke="black" d="M358.701,-554.762C364.701,-554.762 370.701,-560.762 370.701,-566.762"/>
<polyline fill="none" stroke="black" points="370.701,-566.762 370.701,-788.762 "/>
<path fill="none" stroke="black" d="M370.701,-788.762C370.701,-794.762 364.701,-800.762 358.701,-800.762"/>
<polyline fill="none" stroke="black" points="358.701,-800.762 200.701,-800.762 "/>
<path fill="none" stroke="black" d="M200.701,-800.762C194.701,-800.762 188.701,-794.762 188.701,-788.762"/>
<polyline fill="none" stroke="black" points="188.701,-788.762 188.701,-566.762 "/>
<path fill="none" stroke="black" d="M188.701,-566.762C188.701,-560.762 194.701,-554.762 200.701,-554.762"/>
<text text-anchor="middle" x="279.701" y="-784.162" font-family="Times Roman,serif" font-size="14.00">AppointmentsController</text>
<polyline fill="none" stroke="black" points="188.701,-774.762 370.701,-774.762 "/>
<text text-anchor="start" x="196.701" y="-758.162" font-family="Times Roman,serif" font-size="14.00">create</text>
<text text-anchor="start" x="196.701" y="-740.162" font-family="Times Roman,serif" font-size="14.00">destroy</text>
<text text-anchor="start" x="196.701" y="-722.162" font-family="Times Roman,serif" font-size="14.00">edit</text>
<text text-anchor="start" x="196.701" y="-704.162" font-family="Times Roman,serif" font-size="14.00">index</text>
<text text-anchor="start" x="196.701" y="-686.162" font-family="Times Roman,serif" font-size="14.00">new</text>
<text text-anchor="start" x="196.701" y="-668.162" font-family="Times Roman,serif" font-size="14.00">show</text>
<text text-anchor="start" x="196.701" y="-650.162" font-family="Times Roman,serif" font-size="14.00">update</text>
<polyline fill="none" stroke="black" points="188.701,-640.762 370.701,-640.762 "/>
<polyline fill="none" stroke="black" points="188.701,-616.762 370.701,-616.762 "/>
<text text-anchor="start" x="196.701" y="-600.162" font-family="Times Roman,serif" font-size="14.00">_layout</text>
<text text-anchor="start" x="196.701" y="-582.162" font-family="Times Roman,serif" font-size="14.00">appointment_params</text>
<text text-anchor="start" x="196.701" y="-564.162" font-family="Times Roman,serif" font-size="14.00">set_appointment</text>
</g>
<!-- CustomersController -->
<g id="node6" class="node"><title>CustomersController</title>
<polyline fill="none" stroke="black" points="412.607,-535.212 547.607,-535.212 "/>
<path fill="none" stroke="black" d="M547.607,-535.212C553.607,-535.212 559.607,-541.212 559.607,-547.212"/>
<polyline fill="none" stroke="black" points="559.607,-547.212 559.607,-769.212 "/>
<path fill="none" stroke="black" d="M559.607,-769.212C559.607,-775.212 553.607,-781.212 547.607,-781.212"/>
<polyline fill="none" stroke="black" points="547.607,-781.212 412.607,-781.212 "/>
<path fill="none" stroke="black" d="M412.607,-781.212C406.607,-781.212 400.607,-775.212 400.607,-769.212"/>
<polyline fill="none" stroke="black" points="400.607,-769.212 400.607,-547.212 "/>
<path fill="none" stroke="black" d="M400.607,-547.212C400.607,-541.212 406.607,-535.212 412.607,-535.212"/>
<text text-anchor="middle" x="480.107" y="-764.612" font-family="Times Roman,serif" font-size="14.00">CustomersController</text>
<polyline fill="none" stroke="black" points="400.607,-755.212 559.607,-755.212 "/>
<text text-anchor="start" x="408.607" y="-738.612" font-family="Times Roman,serif" font-size="14.00">create</text>
<text text-anchor="start" x="408.607" y="-720.612" font-family="Times Roman,serif" font-size="14.00">destroy</text>
<text text-anchor="start" x="408.607" y="-702.612" font-family="Times Roman,serif" font-size="14.00">edit</text>
<text text-anchor="start" x="408.607" y="-684.612" font-family="Times Roman,serif" font-size="14.00">index</text>
<text text-anchor="start" x="408.607" y="-666.612" font-family="Times Roman,serif" font-size="14.00">new</text>
<text text-anchor="start" x="408.607" y="-648.612" font-family="Times Roman,serif" font-size="14.00">show</text>
<text text-anchor="start" x="408.607" y="-630.612" font-family="Times Roman,serif" font-size="14.00">update</text>
<polyline fill="none" stroke="black" points="400.607,-621.212 559.607,-621.212 "/>
<polyline fill="none" stroke="black" points="400.607,-597.212 559.607,-597.212 "/>
<text text-anchor="start" x="408.607" y="-580.612" font-family="Times Roman,serif" font-size="14.00">_layout</text>
<text text-anchor="start" x="408.607" y="-562.612" font-family="Times Roman,serif" font-size="14.00">customer_params</text>
<text text-anchor="start" x="408.607" y="-544.612" font-family="Times Roman,serif" font-size="14.00">set_customer</text>
</g>
<!-- GarmentsController -->
<g id="node7" class="node"><title>GarmentsController</title>
<polyline fill="none" stroke="black" points="13,-537.061 143,-537.061 "/>
<path fill="none" stroke="black" d="M143,-537.061C149,-537.061 155,-543.061 155,-549.061"/>
<polyline fill="none" stroke="black" points="155,-549.061 155,-771.061 "/>
<path fill="none" stroke="black" d="M155,-771.061C155,-777.061 149,-783.061 143,-783.061"/>
<polyline fill="none" stroke="black" points="143,-783.061 13,-783.061 "/>
<path fill="none" stroke="black" d="M13,-783.061C7,-783.061 1,-777.061 1,-771.061"/>
<polyline fill="none" stroke="black" points="1,-771.061 1,-549.061 "/>
<path fill="none" stroke="black" d="M1,-549.061C1,-543.061 7,-537.061 13,-537.061"/>
<text text-anchor="middle" x="78" y="-766.461" font-family="Times Roman,serif" font-size="14.00">GarmentsController</text>
<polyline fill="none" stroke="black" points="1,-757.061 155,-757.061 "/>
<text text-anchor="start" x="9" y="-740.461" font-family="Times Roman,serif" font-size="14.00">create</text>
<text text-anchor="start" x="9" y="-722.461" font-family="Times Roman,serif" font-size="14.00">destroy</text>
<text text-anchor="start" x="9" y="-704.461" font-family="Times Roman,serif" font-size="14.00">edit</text>
<text text-anchor="start" x="9" y="-686.461" font-family="Times Roman,serif" font-size="14.00">index</text>
<text text-anchor="start" x="9" y="-668.461" font-family="Times Roman,serif" font-size="14.00">new</text>
<text text-anchor="start" x="9" y="-650.461" font-family="Times Roman,serif" font-size="14.00">show</text>
<text text-anchor="start" x="9" y="-632.461" font-family="Times Roman,serif" font-size="14.00">update</text>
<polyline fill="none" stroke="black" points="1,-623.061 155,-623.061 "/>
<polyline fill="none" stroke="black" points="1,-599.061 155,-599.061 "/>
<text text-anchor="start" x="9" y="-582.461" font-family="Times Roman,serif" font-size="14.00">_layout</text>
<text text-anchor="start" x="9" y="-564.461" font-family="Times Roman,serif" font-size="14.00">garment_params</text>
<text text-anchor="start" x="9" y="-546.461" font-family="Times Roman,serif" font-size="14.00">set_garment</text>
</g>
<!-- CostingsController -->
<g id="node8" class="node"><title>CostingsController</title>
<polyline fill="none" stroke="black" points="67.7614,-2.72243 187.761,-2.72243 "/>
<path fill="none" stroke="black" d="M187.761,-2.72243C193.761,-2.72243 199.761,-8.72243 199.761,-14.7224"/>
<polyline fill="none" stroke="black" points="199.761,-14.7224 199.761,-236.722 "/>
<path fill="none" stroke="black" d="M199.761,-236.722C199.761,-242.722 193.761,-248.722 187.761,-248.722"/>
<polyline fill="none" stroke="black" points="187.761,-248.722 67.7614,-248.722 "/>
<path fill="none" stroke="black" d="M67.7614,-248.722C61.7614,-248.722 55.7614,-242.722 55.7614,-236.722"/>
<polyline fill="none" stroke="black" points="55.7614,-236.722 55.7614,-14.7224 "/>
<path fill="none" stroke="black" d="M55.7614,-14.7224C55.7614,-8.72243 61.7614,-2.72243 67.7614,-2.72243"/>
<text text-anchor="middle" x="127.761" y="-232.122" font-family="Times Roman,serif" font-size="14.00">CostingsController</text>
<polyline fill="none" stroke="black" points="55.7614,-222.722 199.761,-222.722 "/>
<text text-anchor="start" x="63.7614" y="-206.122" font-family="Times Roman,serif" font-size="14.00">create</text>
<text text-anchor="start" x="63.7614" y="-188.122" font-family="Times Roman,serif" font-size="14.00">destroy</text>
<text text-anchor="start" x="63.7614" y="-170.122" font-family="Times Roman,serif" font-size="14.00">edit</text>
<text text-anchor="start" x="63.7614" y="-152.122" font-family="Times Roman,serif" font-size="14.00">index</text>
<text text-anchor="start" x="63.7614" y="-134.122" font-family="Times Roman,serif" font-size="14.00">new</text>
<text text-anchor="start" x="63.7614" y="-116.122" font-family="Times Roman,serif" font-size="14.00">show</text>
<text text-anchor="start" x="63.7614" y="-98.1224" font-family="Times Roman,serif" font-size="14.00">update</text>
<polyline fill="none" stroke="black" points="55.7614,-88.7224 199.761,-88.7224 "/>
<polyline fill="none" stroke="black" points="55.7614,-64.7224 199.761,-64.7224 "/>
<text text-anchor="start" x="63.7614" y="-48.1224" font-family="Times Roman,serif" font-size="14.00">_layout</text>
<text text-anchor="start" x="63.7614" y="-30.1224" font-family="Times Roman,serif" font-size="14.00">costing_params</text>
<text text-anchor="start" x="63.7614" y="-12.1224" font-family="Times Roman,serif" font-size="14.00">set_costing</text>
</g>
<!-- ApplicationController -->
<g id="node9" class="node"><title>ApplicationController</title>
<polyline fill="none" stroke="black" points="210.423,-345.988 347.423,-345.988 "/>
<path fill="none" stroke="black" d="M347.423,-345.988C353.423,-345.988 359.423,-351.988 359.423,-357.988"/>
<polyline fill="none" stroke="black" points="359.423,-357.988 359.423,-433.988 "/>
<path fill="none" stroke="black" d="M359.423,-433.988C359.423,-439.988 353.423,-445.988 347.423,-445.988"/>
<polyline fill="none" stroke="black" points="347.423,-445.988 210.423,-445.988 "/>
<path fill="none" stroke="black" d="M210.423,-445.988C204.423,-445.988 198.423,-439.988 198.423,-433.988"/>
<polyline fill="none" stroke="black" points="198.423,-433.988 198.423,-357.988 "/>
<path fill="none" stroke="black" d="M198.423,-357.988C198.423,-351.988 204.423,-345.988 210.423,-345.988"/>
<text text-anchor="middle" x="278.923" y="-429.388" font-family="Times Roman,serif" font-size="14.00">ApplicationController</text>
<polyline fill="none" stroke="black" points="198.423,-419.988 359.423,-419.988 "/>
<polyline fill="none" stroke="black" points="198.423,-395.988 359.423,-395.988 "/>
<polyline fill="none" stroke="black" points="198.423,-371.988 359.423,-371.988 "/>
<text text-anchor="start" x="206.423" y="-355.388" font-family="Times Roman,serif" font-size="14.00">_layout</text>
</g>
<!-- ApplicationController&#45;&gt;OrdersController -->
<g id="edge2" class="edge"><title>ApplicationController&#45;&gt;OrdersController</title>
<path fill="none" stroke="black" d="M198.171,-390.923C178.894,-389.714 158.539,-388.438 140.007,-387.275"/>
</g>
<!-- ApplicationController&#45;&gt;WelcomeController -->
<g id="edge4" class="edge"><title>ApplicationController&#45;&gt;WelcomeController</title>
<path fill="none" stroke="black" d="M359.482,-389.57C375.919,-388.261 393.14,-386.889 409.34,-385.598"/>
</g>
<!-- ApplicationController&#45;&gt;ExpensesController -->
<g id="edge6" class="edge"><title>ApplicationController&#45;&gt;ExpensesController</title>
<path fill="none" stroke="black" d="M306.471,-345.876C321.716,-318.145 341.392,-282.354 360.46,-247.668"/>
</g>
<!-- ApplicationController&#45;&gt;AppointmentsController -->
<g id="edge8" class="edge"><title>ApplicationController&#45;&gt;AppointmentsController</title>
<path fill="none" stroke="black" d="M279.061,-446.039C279.145,-476.323 279.255,-516.37 279.361,-554.64"/>
</g>
<!-- ApplicationController&#45;&gt;CustomersController -->
<g id="edge10" class="edge"><title>ApplicationController&#45;&gt;CustomersController</title>
<path fill="none" stroke="black" d="M317.475,-446.237C340.979,-476.872 371.897,-517.17 400.457,-554.396"/>
</g>
<!-- ApplicationController&#45;&gt;GarmentsController -->
<g id="edge12" class="edge"><title>ApplicationController&#45;&gt;GarmentsController</title>
<path fill="none" stroke="black" d="M240.658,-446.279C216.463,-478.079 184.333,-520.308 155.022,-558.831"/>
</g>
<!-- ApplicationController&#45;&gt;CostingsController -->
<g id="edge14" class="edge"><title>ApplicationController&#45;&gt;CostingsController</title>
<path fill="none" stroke="black" d="M250.845,-345.786C235.519,-318.385 215.811,-283.148 196.677,-248.939"/>
</g>
</g>
</svg>
