<?xml version="1.0" encoding="UTF-8" standalone="no"?>
<!DOCTYPE svg PUBLIC "-//W3C//DTD SVG 1.1//EN"
 "http://www.w3.org/Graphics/SVG/1.1/DTD/svg11.dtd">
<!-- Generated by graphviz version 2.26.3 (20100126.1600)
 -->
<!-- Title: models_diagram Pages: 1 -->
<svg width="618pt" height="398pt"
 viewBox="0.00 0.00 618.00 398.00" xmlns="http://www.w3.org/2000/svg" xmlns:xlink="http://www.w3.org/1999/xlink">
<g id="graph1" class="graph" transform="scale(1 1) rotate(0) translate(4 394)">
<title>models_diagram</title>
<polygon fill="white" stroke="white" points="-4,5 -4,-394 615,-394 615,5 -4,5"/>
<!-- _diagram_info -->
<g id="node1" class="node"><title>_diagram_info</title>
<text text-anchor="start" x="8" y="-373.8" font-family="Times Roman,serif" font-size="13.00">Models diagram</text>
<text text-anchor="start" x="8" y="-356.8" font-family="Times Roman,serif" font-size="13.00">Date: May 13 2014 &#45; 21:27</text>
<text text-anchor="start" x="8" y="-339.8" font-family="Times Roman,serif" font-size="13.00">Migration version: 20140513191604</text>
<text text-anchor="start" x="8" y="-322.8" font-family="Times Roman,serif" font-size="13.00">Generated by RailRoady 1.1.1</text>
<text text-anchor="start" x="8" y="-305.8" font-family="Times Roman,serif" font-size="13.00">http://railroady.prestonlee.com</text>
</g>
<!-- Garment -->
<g id="node2" class="node"><title>Garment</title>
<ellipse fill="none" stroke="black" cx="243" cy="-93" rx="55.1543" ry="18.3848"/>
<text text-anchor="middle" x="243" y="-89.4" font-family="Times Roman,serif" font-size="14.00">Garment</text>
</g>
<!-- Costing -->
<g id="node5" class="node"><title>Costing</title>
<ellipse fill="none" stroke="black" cx="360" cy="-19" rx="48.0833" ry="18.3848"/>
<text text-anchor="middle" x="360" y="-15.4" font-family="Times Roman,serif" font-size="14.00">Costing</text>
</g>
<!-- Garment&#45;&gt;Costing -->
<g id="edge2" class="edge"><title>Garment&#45;&gt;Costing</title>
<path fill="none" stroke="#552040" d="M276.15,-72.0335C291.752,-62.1653 310.337,-50.4106 326.041,-40.4784"/>
<ellipse fill="none" stroke="#552040" cx="272.347" cy="-74.4388" rx="4.00002" ry="4.00002"/>
<polygon fill="#552040" stroke="#552040" points="326.458,-40.2146 337.315,-38.6723 330.684,-37.5419 334.91,-34.8692 334.91,-34.8692 334.91,-34.8692 330.684,-37.5419 332.504,-31.066 326.458,-40.2146 326.458,-40.2146"/>
</g>
<!-- Order -->
<g id="node3" class="node"><title>Order</title>
<ellipse fill="none" stroke="black" cx="243" cy="-167" rx="39.0967" ry="18.3848"/>
<text text-anchor="middle" x="243" y="-163.4" font-family="Times Roman,serif" font-size="14.00">Order</text>
</g>
<!-- Order&#45;&gt;Garment -->
<g id="edge6" class="edge"><title>Order&#45;&gt;Garment</title>
<path fill="none" stroke="#337e66" d="M243,-140.309C243,-134.377 243,-128.061 243,-122.04"/>
<ellipse fill="none" stroke="#337e66" cx="243" cy="-144.327" rx="4" ry="4"/>
<polygon fill="#337e66" stroke="#337e66" points="243,-121.667 247.5,-111.667 243,-116.667 243,-111.667 243,-111.667 243,-111.667 243,-116.667 238.5,-111.667 243,-121.667 243,-121.667"/>
</g>
<!-- Appointment -->
<g id="node4" class="node"><title>Appointment</title>
<ellipse fill="none" stroke="black" cx="375" cy="-167" rx="74.9533" ry="18.3848"/>
<text text-anchor="middle" x="375" y="-163.4" font-family="Times Roman,serif" font-size="14.00">Appointment</text>
</g>
<!-- Expense -->
<g id="node6" class="node"><title>Expense</title>
<ellipse fill="none" stroke="black" cx="558" cy="-241" rx="51.8276" ry="18.3848"/>
<text text-anchor="middle" x="558" y="-237.4" font-family="Times Roman,serif" font-size="14.00">Expense</text>
</g>
<!-- Customer -->
<g id="node7" class="node"><title>Customer</title>
<ellipse fill="none" stroke="black" cx="329" cy="-241" rx="58.1882" ry="18.3848"/>
<text text-anchor="middle" x="329" y="-237.4" font-family="Times Roman,serif" font-size="14.00">Customer</text>
</g>
<!-- Customer&#45;&gt;Order -->
<g id="edge18" class="edge"><title>Customer&#45;&gt;Order</title>
<path fill="none" stroke="#1b9db8" d="M302.425,-218.133C292.017,-209.177 280.098,-198.922 269.68,-189.958"/>
<ellipse fill="none" stroke="#1b9db8" cx="305.587" cy="-220.854" rx="4.00002" ry="4.00002"/>
<polygon fill="#1b9db8" stroke="#1b9db8" points="269.636,-189.92 264.991,-179.986 265.846,-186.658 262.056,-183.397 262.056,-183.397 262.056,-183.397 265.846,-186.658 259.121,-186.808 269.636,-189.92 269.636,-189.92"/>
</g>
<!-- Customer&#45;&gt;Appointment -->
<g id="edge16" class="edge"><title>Customer&#45;&gt;Appointment</title>
<path fill="none" stroke="#347a24" d="M344.716,-215.718C349.075,-208.706 353.823,-201.068 358.239,-193.964"/>
<ellipse fill="none" stroke="#347a24" cx="342.483" cy="-219.311" rx="4.00002" ry="4.00002"/>
<polygon fill="#347a24" stroke="#347a24" points="358.321,-193.831 367.422,-187.714 360.961,-189.585 363.601,-185.338 363.601,-185.338 363.601,-185.338 360.961,-189.585 359.779,-182.962 358.321,-193.831 358.321,-193.831"/>
</g>
<!-- ActiveRecord::Base -->
<g id="node9" class="node"><title>ActiveRecord::Base</title>
<ellipse fill="none" stroke="black" cx="372" cy="-343" rx="104.151" ry="18.3848"/>
<text text-anchor="middle" x="372" y="-339.4" font-family="Times Roman,serif" font-size="14.00">ActiveRecord::Base</text>
</g>
<!-- ActiveRecord::Base&#45;&gt;Garment -->
<g id="edge4" class="edge"><title>ActiveRecord::Base&#45;&gt;Garment</title>
<path fill="none" stroke="black" d="M334.606,-325.679C288.908,-301.883 215.164,-254.14 195,-186 190.208,-169.805 189.07,-163.814 195,-148 200.474,-133.404 211.768,-120.137 222.027,-110.292"/>
</g>
<!-- ActiveRecord::Base&#45;&gt;Order -->
<g id="edge8" class="edge"><title>ActiveRecord::Base&#45;&gt;Order</title>
<path fill="none" stroke="black" d="M337.035,-325.523C312.217,-311.282 280.194,-288.83 262,-260 247.576,-237.145 243.835,-205.405 243.009,-185.545"/>
</g>
<!-- ActiveRecord::Base&#45;&gt;Appointment -->
<g id="edge10" class="edge"><title>ActiveRecord::Base&#45;&gt;Appointment</title>
<path fill="none" stroke="black" d="M380.214,-324.167C389.55,-300.394 402.68,-258.225 396,-222 393.683,-209.436 388.622,-196.028 384.049,-185.596"/>
</g>
<!-- ActiveRecord::Base&#45;&gt;Costing -->
<g id="edge12" class="edge"><title>ActiveRecord::Base&#45;&gt;Costing</title>
<path fill="none" stroke="black" d="M390.38,-324.637C422.13,-290.595 481.762,-215.047 459,-148 443.299,-101.753 403.608,-59.1 379.521,-36.3035"/>
</g>
<!-- ActiveRecord::Base&#45;&gt;Expense -->
<g id="edge14" class="edge"><title>ActiveRecord::Base&#45;&gt;Expense</title>
<path fill="none" stroke="black" d="M404.399,-325.233C439.787,-305.827 495.91,-275.049 529.624,-256.561"/>
</g>
<!-- ActiveRecord::Base&#45;&gt;Customer -->
<g id="edge20" class="edge"><title>ActiveRecord::Base&#45;&gt;Customer</title>
<path fill="none" stroke="black" d="M364.113,-324.292C356.355,-305.888 344.578,-277.953 336.837,-259.59"/>
</g>
</g>
</svg>
