<?xml version="1.0" encoding="UTF-8" standalone="no"?>
<!DOCTYPE svg PUBLIC "-//W3C//DTD SVG 1.1//EN"
 "http://www.w3.org/Graphics/SVG/1.1/DTD/svg11.dtd">
<!-- Generated by graphviz version 2.26.3 (20100126.1600)
 -->
<!-- Title: models_diagram Pages: 1 -->
<svg width="740pt" height="1344pt"
 viewBox="0.00 0.00 740.00 1344.00" xmlns="http://www.w3.org/2000/svg" xmlns:xlink="http://www.w3.org/1999/xlink">
<g id="graph1" class="graph" transform="scale(1 1) rotate(0) translate(4 1340)">
<title>models_diagram</title>
<polygon fill="white" stroke="white" points="-4,5 -4,-1340 737,-1340 737,5 -4,5"/>
<!-- _diagram_info -->
<g id="node1" class="node"><title>_diagram_info</title>
<text text-anchor="start" x="8" y="-1319.8" font-family="Times Roman,serif" font-size="13.00">Models diagram</text>
<text text-anchor="start" x="8" y="-1302.8" font-family="Times Roman,serif" font-size="13.00">Date: May 13 2014 &#45; 21:27</text>
<text text-anchor="start" x="8" y="-1285.8" font-family="Times Roman,serif" font-size="13.00">Migration version: 20140513191604</text>
<text text-anchor="start" x="8" y="-1268.8" font-family="Times Roman,serif" font-size="13.00">Generated by RailRoady 1.1.1</text>
<text text-anchor="start" x="8" y="-1251.8" font-family="Times Roman,serif" font-size="13.00">http://railroady.prestonlee.com</text>
</g>
<!-- Garment -->
<g id="node2" class="node"><title>Garment</title>
<polyline fill="none" stroke="black" points="97,-253 317,-253 "/>
<path fill="none" stroke="black" d="M317,-253C323,-253 329,-259 329,-265"/>
<polyline fill="none" stroke="black" points="329,-265 329,-707 "/>
<path fill="none" stroke="black" d="M329,-707C329,-713 323,-719 317,-719"/>
<polyline fill="none" stroke="black" points="317,-719 97,-719 "/>
<path fill="none" stroke="black" d="M97,-719C91,-719 85,-713 85,-707"/>
<polyline fill="none" stroke="black" points="85,-707 85,-265 "/>
<path fill="none" stroke="black" d="M85,-265C85,-259 91,-253 97,-253"/>
<text text-anchor="middle" x="207" y="-702.4" font-family="Times Roman,serif" font-size="14.00">Garment</text>
<polyline fill="none" stroke="black" points="85,-693 329,-693 "/>
<text text-anchor="start" x="93" y="-676.4" font-family="Times Roman,serif" font-size="14.00">id :integer</text>
<text text-anchor="start" x="93" y="-658.4" font-family="Times Roman,serif" font-size="14.00">garment_type :string</text>
<text text-anchor="start" x="93" y="-640.4" font-family="Times Roman,serif" font-size="14.00">garment_description :text</text>
<text text-anchor="start" x="93" y="-622.4" font-family="Times Roman,serif" font-size="14.00">order_id :integer</text>
<text text-anchor="start" x="93" y="-604.4" font-family="Times Roman,serif" font-size="14.00">bust :decimal</text>
<text text-anchor="start" x="93" y="-586.4" font-family="Times Roman,serif" font-size="14.00">under_bust :decimal</text>
<text text-anchor="start" x="93" y="-568.4" font-family="Times Roman,serif" font-size="14.00">waist :decimal</text>
<text text-anchor="start" x="93" y="-550.4" font-family="Times Roman,serif" font-size="14.00">hip_upper :decimal</text>
<text text-anchor="start" x="93" y="-532.4" font-family="Times Roman,serif" font-size="14.00">hip_lower :decimal</text>
<text text-anchor="start" x="93" y="-514.4" font-family="Times Roman,serif" font-size="14.00">bust_point :decimal</text>
<text text-anchor="start" x="93" y="-496.4" font-family="Times Roman,serif" font-size="14.00">front_length :decimal</text>
<text text-anchor="start" x="93" y="-478.4" font-family="Times Roman,serif" font-size="14.00">shoulder_to_under_bust :decimal</text>
<text text-anchor="start" x="93" y="-460.4" font-family="Times Roman,serif" font-size="14.00">back_length :decimal</text>
<text text-anchor="start" x="93" y="-442.4" font-family="Times Roman,serif" font-size="14.00">across_back :decimal</text>
<text text-anchor="start" x="93" y="-424.4" font-family="Times Roman,serif" font-size="14.00">shoulderlength :decimal</text>
<text text-anchor="start" x="93" y="-406.4" font-family="Times Roman,serif" font-size="14.00">skirt_length :decimal</text>
<text text-anchor="start" x="93" y="-388.4" font-family="Times Roman,serif" font-size="14.00">sleeve_length :decimal</text>
<text text-anchor="start" x="93" y="-370.4" font-family="Times Roman,serif" font-size="14.00">sleeve_width_upper :decimal</text>
<text text-anchor="start" x="93" y="-352.4" font-family="Times Roman,serif" font-size="14.00">sleeve_width_elbow :decimal</text>
<text text-anchor="start" x="93" y="-334.4" font-family="Times Roman,serif" font-size="14.00">sleeve_width_wrist :decimal</text>
<text text-anchor="start" x="93" y="-316.4" font-family="Times Roman,serif" font-size="14.00">pants_length :decimal</text>
<text text-anchor="start" x="93" y="-298.4" font-family="Times Roman,serif" font-size="14.00">jacket_length :decimal</text>
<text text-anchor="start" x="93" y="-280.4" font-family="Times Roman,serif" font-size="14.00">created_at :datetime</text>
<text text-anchor="start" x="93" y="-262.4" font-family="Times Roman,serif" font-size="14.00">updated_at :datetime</text>
</g>
<!-- Costing -->
<g id="node5" class="node"><title>Costing</title>
<polyline fill="none" stroke="black" points="298.5,-1 439.5,-1 "/>
<path fill="none" stroke="black" d="M439.5,-1C445.5,-1 451.5,-7 451.5,-13"/>
<polyline fill="none" stroke="black" points="451.5,-13 451.5,-203 "/>
<path fill="none" stroke="black" d="M451.5,-203C451.5,-209 445.5,-215 439.5,-215"/>
<polyline fill="none" stroke="black" points="439.5,-215 298.5,-215 "/>
<path fill="none" stroke="black" d="M298.5,-215C292.5,-215 286.5,-209 286.5,-203"/>
<polyline fill="none" stroke="black" points="286.5,-203 286.5,-13 "/>
<path fill="none" stroke="black" d="M286.5,-13C286.5,-7 292.5,-1 298.5,-1"/>
<text text-anchor="middle" x="369" y="-198.4" font-family="Times Roman,serif" font-size="14.00">Costing</text>
<polyline fill="none" stroke="black" points="286.5,-189 451.5,-189 "/>
<text text-anchor="start" x="294.5" y="-172.4" font-family="Times Roman,serif" font-size="14.00">id :integer</text>
<text text-anchor="start" x="294.5" y="-154.4" font-family="Times Roman,serif" font-size="14.00">cost_date :date</text>
<text text-anchor="start" x="294.5" y="-136.4" font-family="Times Roman,serif" font-size="14.00">cost_status :string</text>
<text text-anchor="start" x="294.5" y="-118.4" font-family="Times Roman,serif" font-size="14.00">labour_cost :decimal</text>
<text text-anchor="start" x="294.5" y="-100.4" font-family="Times Roman,serif" font-size="14.00">fabric_cost :decimal</text>
<text text-anchor="start" x="294.5" y="-82.4" font-family="Times Roman,serif" font-size="14.00">acc_cost :decimal</text>
<text text-anchor="start" x="294.5" y="-64.4" font-family="Times Roman,serif" font-size="14.00">misc_cost :decimal</text>
<text text-anchor="start" x="294.5" y="-46.4" font-family="Times Roman,serif" font-size="14.00">garment_id :integer</text>
<text text-anchor="start" x="294.5" y="-28.4" font-family="Times Roman,serif" font-size="14.00">created_at :datetime</text>
<text text-anchor="start" x="294.5" y="-10.4" font-family="Times Roman,serif" font-size="14.00">updated_at :datetime</text>
</g>
<!-- Garment&#45;&gt;Costing -->
<g id="edge2" class="edge"><title>Garment&#45;&gt;Costing</title>
<path fill="none" stroke="#2344e9" d="M310.169,-245.273C313.197,-238.208 316.18,-231.247 319.1,-224.434"/>
<ellipse fill="none" stroke="#2344e9" cx="308.521" cy="-249.117" rx="4.00002" ry="4.00002"/>
<polygon fill="#2344e9" stroke="#2344e9" points="319.101,-224.431 327.176,-217.013 321.07,-219.836 323.04,-215.24 323.04,-215.24 323.04,-215.24 321.07,-219.836 318.904,-213.467 319.101,-224.431 319.101,-224.431"/>
</g>
<!-- Order -->
<g id="node3" class="node"><title>Order</title>
<polyline fill="none" stroke="black" points="103.5,-757 310.5,-757 "/>
<path fill="none" stroke="black" d="M310.5,-757C316.5,-757 322.5,-763 322.5,-769"/>
<polyline fill="none" stroke="black" points="322.5,-769 322.5,-923 "/>
<path fill="none" stroke="black" d="M322.5,-923C322.5,-929 316.5,-935 310.5,-935"/>
<polyline fill="none" stroke="black" points="310.5,-935 103.5,-935 "/>
<path fill="none" stroke="black" d="M103.5,-935C97.5,-935 91.5,-929 91.5,-923"/>
<polyline fill="none" stroke="black" points="91.5,-923 91.5,-769 "/>
<path fill="none" stroke="black" d="M91.5,-769C91.5,-763 97.5,-757 103.5,-757"/>
<text text-anchor="middle" x="207" y="-918.4" font-family="Times Roman,serif" font-size="14.00">Order</text>
<polyline fill="none" stroke="black" points="91.5,-909 322.5,-909 "/>
<text text-anchor="start" x="99.5" y="-892.4" font-family="Times Roman,serif" font-size="14.00">id :integer</text>
<text text-anchor="start" x="99.5" y="-874.4" font-family="Times Roman,serif" font-size="14.00">order_description :text</text>
<text text-anchor="start" x="99.5" y="-856.4" font-family="Times Roman,serif" font-size="14.00">due_date :date</text>
<text text-anchor="start" x="99.5" y="-838.4" font-family="Times Roman,serif" font-size="14.00">customer_value_index :decimal</text>
<text text-anchor="start" x="99.5" y="-820.4" font-family="Times Roman,serif" font-size="14.00">closed :boolean</text>
<text text-anchor="start" x="99.5" y="-802.4" font-family="Times Roman,serif" font-size="14.00">customer_id :integer</text>
<text text-anchor="start" x="99.5" y="-784.4" font-family="Times Roman,serif" font-size="14.00">created_at :datetime</text>
<text text-anchor="start" x="99.5" y="-766.4" font-family="Times Roman,serif" font-size="14.00">updated_at :datetime</text>
</g>
<!-- Order&#45;&gt;Garment -->
<g id="edge6" class="edge"><title>Order&#45;&gt;Garment</title>
<path fill="none" stroke="#8072c3" d="M207,-748.375C207,-742.195 207,-735.85 207,-729.379"/>
<ellipse fill="none" stroke="#8072c3" cx="207" cy="-752.549" rx="4" ry="4"/>
<polygon fill="#8072c3" stroke="#8072c3" points="207,-729.114 211.5,-719.114 207,-724.114 207,-719.114 207,-719.114 207,-719.114 207,-724.114 202.5,-719.114 207,-729.114 207,-729.114"/>
</g>
<!-- Appointment -->
<g id="node4" class="node"><title>Appointment</title>
<polyline fill="none" stroke="black" points="351.5,-757 492.5,-757 "/>
<path fill="none" stroke="black" d="M492.5,-757C498.5,-757 504.5,-763 504.5,-769"/>
<polyline fill="none" stroke="black" points="504.5,-769 504.5,-923 "/>
<path fill="none" stroke="black" d="M504.5,-923C504.5,-929 498.5,-935 492.5,-935"/>
<polyline fill="none" stroke="black" points="492.5,-935 351.5,-935 "/>
<path fill="none" stroke="black" d="M351.5,-935C345.5,-935 339.5,-929 339.5,-923"/>
<polyline fill="none" stroke="black" points="339.5,-923 339.5,-769 "/>
<path fill="none" stroke="black" d="M339.5,-769C339.5,-763 345.5,-757 351.5,-757"/>
<text text-anchor="middle" x="422" y="-918.4" font-family="Times Roman,serif" font-size="14.00">Appointment</text>
<polyline fill="none" stroke="black" points="339.5,-909 504.5,-909 "/>
<text text-anchor="start" x="347.5" y="-892.4" font-family="Times Roman,serif" font-size="14.00">id :integer</text>
<text text-anchor="start" x="347.5" y="-874.4" font-family="Times Roman,serif" font-size="14.00">date :date</text>
<text text-anchor="start" x="347.5" y="-856.4" font-family="Times Roman,serif" font-size="14.00">time :time</text>
<text text-anchor="start" x="347.5" y="-838.4" font-family="Times Roman,serif" font-size="14.00">comments :text</text>
<text text-anchor="start" x="347.5" y="-820.4" font-family="Times Roman,serif" font-size="14.00">follow_up :boolean</text>
<text text-anchor="start" x="347.5" y="-802.4" font-family="Times Roman,serif" font-size="14.00">customer_id :integer</text>
<text text-anchor="start" x="347.5" y="-784.4" font-family="Times Roman,serif" font-size="14.00">created_at :datetime</text>
<text text-anchor="start" x="347.5" y="-766.4" font-family="Times Roman,serif" font-size="14.00">updated_at :datetime</text>
</g>
<!-- Expense -->
<g id="node6" class="node"><title>Expense</title>
<polyline fill="none" stroke="black" points="572,-973 720,-973 "/>
<path fill="none" stroke="black" d="M720,-973C726,-973 732,-979 732,-985"/>
<polyline fill="none" stroke="black" points="732,-985 732,-1193 "/>
<path fill="none" stroke="black" d="M732,-1193C732,-1199 726,-1205 720,-1205"/>
<polyline fill="none" stroke="black" points="720,-1205 572,-1205 "/>
<path fill="none" stroke="black" d="M572,-1205C566,-1205 560,-1199 560,-1193"/>
<polyline fill="none" stroke="black" points="560,-1193 560,-985 "/>
<path fill="none" stroke="black" d="M560,-985C560,-979 566,-973 572,-973"/>
<text text-anchor="middle" x="646" y="-1188.4" font-family="Times Roman,serif" font-size="14.00">Expense</text>
<polyline fill="none" stroke="black" points="560,-1179 732,-1179 "/>
<text text-anchor="start" x="568" y="-1162.4" font-family="Times Roman,serif" font-size="14.00">id :integer</text>
<text text-anchor="start" x="568" y="-1144.4" font-family="Times Roman,serif" font-size="14.00">period_end_date :date</text>
<text text-anchor="start" x="568" y="-1126.4" font-family="Times Roman,serif" font-size="14.00">habby :decimal</text>
<text text-anchor="start" x="568" y="-1108.4" font-family="Times Roman,serif" font-size="14.00">bank_charge :decimal</text>
<text text-anchor="start" x="568" y="-1090.4" font-family="Times Roman,serif" font-size="14.00">equipment :decimal</text>
<text text-anchor="start" x="568" y="-1072.4" font-family="Times Roman,serif" font-size="14.00">stationery :decimal</text>
<text text-anchor="start" x="568" y="-1054.4" font-family="Times Roman,serif" font-size="14.00">computer :decimal</text>
<text text-anchor="start" x="568" y="-1036.4" font-family="Times Roman,serif" font-size="14.00">telephone :decimal</text>
<text text-anchor="start" x="568" y="-1018.4" font-family="Times Roman,serif" font-size="14.00">misc_expense :decimal</text>
<text text-anchor="start" x="568" y="-1000.4" font-family="Times Roman,serif" font-size="14.00">created_at :datetime</text>
<text text-anchor="start" x="568" y="-982.4" font-family="Times Roman,serif" font-size="14.00">updated_at :datetime</text>
</g>
<!-- Customer -->
<g id="node7" class="node"><title>Customer</title>
<polyline fill="none" stroke="black" points="246.5,-1009 387.5,-1009 "/>
<path fill="none" stroke="black" d="M387.5,-1009C393.5,-1009 399.5,-1015 399.5,-1021"/>
<polyline fill="none" stroke="black" points="399.5,-1021 399.5,-1157 "/>
<path fill="none" stroke="black" d="M399.5,-1157C399.5,-1163 393.5,-1169 387.5,-1169"/>
<polyline fill="none" stroke="black" points="387.5,-1169 246.5,-1169 "/>
<path fill="none" stroke="black" d="M246.5,-1169C240.5,-1169 234.5,-1163 234.5,-1157"/>
<polyline fill="none" stroke="black" points="234.5,-1157 234.5,-1021 "/>
<path fill="none" stroke="black" d="M234.5,-1021C234.5,-1015 240.5,-1009 246.5,-1009"/>
<text text-anchor="middle" x="317" y="-1152.4" font-family="Times Roman,serif" font-size="14.00">Customer</text>
<polyline fill="none" stroke="black" points="234.5,-1143 399.5,-1143 "/>
<text text-anchor="start" x="242.5" y="-1126.4" font-family="Times Roman,serif" font-size="14.00">id :integer</text>
<text text-anchor="start" x="242.5" y="-1108.4" font-family="Times Roman,serif" font-size="14.00">first_name :string</text>
<text text-anchor="start" x="242.5" y="-1090.4" font-family="Times Roman,serif" font-size="14.00">last_name :string</text>
<text text-anchor="start" x="242.5" y="-1072.4" font-family="Times Roman,serif" font-size="14.00">contact_no :string</text>
<text text-anchor="start" x="242.5" y="-1054.4" font-family="Times Roman,serif" font-size="14.00">email :string</text>
<text text-anchor="start" x="242.5" y="-1036.4" font-family="Times Roman,serif" font-size="14.00">created_at :datetime</text>
<text text-anchor="start" x="242.5" y="-1018.4" font-family="Times Roman,serif" font-size="14.00">updated_at :datetime</text>
</g>
<!-- Customer&#45;&gt;Order -->
<g id="edge18" class="edge"><title>Customer&#45;&gt;Order</title>
<path fill="none" stroke="#acd36a" d="M277.278,-1001.25C268.944,-982.84 260.102,-963.308 251.604,-944.534"/>
<ellipse fill="none" stroke="#acd36a" cx="279.027" cy="-1005.12" rx="4.00002" ry="4.00002"/>
<polygon fill="#acd36a" stroke="#acd36a" points="251.587,-944.497 251.563,-933.531 249.525,-939.942 247.463,-935.387 247.463,-935.387 247.463,-935.387 249.525,-939.942 243.364,-937.243 251.587,-944.497 251.587,-944.497"/>
</g>
<!-- Customer&#45;&gt;Appointment -->
<g id="edge16" class="edge"><title>Customer&#45;&gt;Appointment</title>
<path fill="none" stroke="#b868ca" d="M354.917,-1001.25C362.835,-982.924 371.235,-963.485 379.313,-944.79"/>
<ellipse fill="none" stroke="#b868ca" cx="353.259" cy="-1005.09" rx="4.00002" ry="4.00002"/>
<polygon fill="#b868ca" stroke="#b868ca" points="379.409,-944.567 387.507,-937.172 381.393,-939.977 383.376,-935.387 383.376,-935.387 383.376,-935.387 381.393,-939.977 379.245,-933.602 379.409,-944.567 379.409,-944.567"/>
</g>
<!-- ActiveRecord::Base -->
<g id="node9" class="node"><title>ActiveRecord::Base</title>
<ellipse fill="none" stroke="black" cx="372" cy="-1289" rx="104.151" ry="18.3848"/>
<text text-anchor="middle" x="372" y="-1285.4" font-family="Times Roman,serif" font-size="14.00">ActiveRecord::Base</text>
</g>
<!-- ActiveRecord::Base&#45;&gt;Garment -->
<g id="edge4" class="edge"><title>ActiveRecord::Base&#45;&gt;Garment</title>
<path fill="none" stroke="black" d="M330.665,-1271.8C274.533,-1248.38 180.801,-1208.99 178,-1206 91.0624,-1113.13 104.417,-1061.4 83,-936 69.5315,-857.142 65.9116,-834.154 83,-756 85.6719,-743.78 88.9503,-731.452 92.6963,-719.147"/>
</g>
<!-- ActiveRecord::Base&#45;&gt;Order -->
<g id="edge8" class="edge"><title>ActiveRecord::Base&#45;&gt;Order</title>
<path fill="none" stroke="black" d="M318.118,-1273.06C285.571,-1260.42 246.531,-1239.24 226,-1206 175.844,-1124.8 178.702,-1012.59 189.211,-935.131"/>
</g>
<!-- ActiveRecord::Base&#45;&gt;Appointment -->
<g id="edge10" class="edge"><title>ActiveRecord::Base&#45;&gt;Appointment</title>
<path fill="none" stroke="black" d="M382.37,-1270.56C390.999,-1254.17 402.695,-1229.28 408,-1206 428.637,-1115.44 430.043,-1008.81 427.584,-935.221"/>
</g>
<!-- ActiveRecord::Base&#45;&gt;Costing -->
<g id="edge12" class="edge"><title>ActiveRecord::Base&#45;&gt;Costing</title>
<path fill="none" stroke="black" d="M388.001,-1270.71C401.373,-1254.62 420.112,-1230.07 432,-1206 487.472,-1093.67 494.807,-1059.96 513,-936 551.111,-676.33 464.573,-372.785 409.737,-215.22"/>
</g>
<!-- ActiveRecord::Base&#45;&gt;Expense -->
<g id="edge14" class="edge"><title>ActiveRecord::Base&#45;&gt;Expense</title>
<path fill="none" stroke="black" d="M419.672,-1272.52C456.436,-1258.4 507.361,-1235.64 546,-1206 550.664,-1202.42 555.266,-1198.6 559.78,-1194.59"/>
</g>
<!-- ActiveRecord::Base&#45;&gt;Customer -->
<g id="edge20" class="edge"><title>ActiveRecord::Base&#45;&gt;Customer</title>
<path fill="none" stroke="black" d="M366.826,-1270.18C360.461,-1247.04 349.248,-1206.26 339.068,-1169.25"/>
</g>
</g>
</svg>
